<svg width="12" height="18" viewBox="0 0 12 18" fill="none" xmlns="http://www.w3.org/2000/svg">
<path d="M11.1653 0.14536C11.0584 0.0528861 10.913 0.000544132 10.761 -0.000180005C10.6087 -0.00138881 10.4623 0.0511964 10.3567 0.14536L0.822241 8.31806C0.714073 8.40956 0.653149 8.53431 0.653149 8.66462C0.653149 8.79492 0.714073 8.91968 0.822241 9.01118L10.3567 17.1854C10.4626 17.2825 10.61 17.3386 10.765 17.3408C10.9201 17.3429 11.0695 17.2912 11.1792 17.1971C11.2888 17.1032 11.3493 16.9751 11.3466 16.8422C11.3441 16.7094 11.2786 16.5831 11.1654 16.4923L2.03528 8.66461L11.1654 0.838814C11.2731 0.747067 11.3336 0.622316 11.3336 0.492131C11.3336 0.362065 11.2731 0.237315 11.1654 0.145574L11.1653 0.14536Z" fill="white"/>
</svg>
