<svg width="12" height="18" viewBox="0 0 12 18" fill="none" xmlns="http://www.w3.org/2000/svg">
<path d="M0.834668 17.8546C0.941566 17.9471 1.08697 17.9995 1.23899 18.0002C1.3913 18.0014 1.53768 17.9488 1.6433 17.8546L11.1778 9.68194C11.2859 9.59043 11.3469 9.46568 11.3469 9.33538C11.3469 9.20508 11.2859 9.08032 11.1778 8.98882L1.6433 0.814576C1.53739 0.71751 1.39002 0.661421 1.23502 0.659246C1.07988 0.65707 0.930536 0.708808 0.820805 0.802851C0.711225 0.896777 0.650727 1.02491 0.653406 1.15776C0.655944 1.29061 0.72138 1.41693 0.834625 1.50773L9.96473 9.33538L0.834625 17.1612C0.726879 17.2529 0.666377 17.3777 0.666377 17.5079C0.666377 17.6379 0.726879 17.7627 0.834625 17.8544L0.834668 17.8546Z" fill="white"/>
</svg>
