<svg width="59" height="30" viewBox="0 0 59 30" fill="none" xmlns="http://www.w3.org/2000/svg">
<path d="M58.51 16.5978L54.4087 8.24674C54.1103 7.63599 53.561 7.25653 52.9713 7.25653H46.6763V1.17714C46.6763 0.527667 46.2371 0 45.6977 0H21.4162C20.8767 0 20.4385 0.527667 20.4385 1.17714V24.9788C20.4385 25.6283 20.8767 26.1571 21.4162 26.1571H25.6215C25.9903 28.3463 27.5997 30 29.5243 30C31.4493 30 33.0592 28.3463 33.4285 26.1571H45.8425C46.2113 28.3463 47.8217 30 49.7468 30C51.6718 30 53.2802 28.3463 53.6486 26.1571H56.584C57.8157 26.1571 58.8209 24.9468 58.8209 23.4609V17.9681C58.8205 17.4865 58.7128 17.0127 58.5099 16.5973L58.51 16.5978ZM56.281 16.7701L51.5342 16.7045C51.193 16.7045 50.9062 16.4126 50.9062 16.0679V12.9923C50.9062 12.843 51.0065 12.7223 51.1305 12.7223H54.3162L56.281 16.7701ZM22.3938 2.35376H44.7191V18.3365H22.3938V2.35376ZM22.3938 20.6932H28.2231C27.0328 21.1928 26.1087 22.3447 25.7353 23.8003H22.3938V20.6932ZM29.5243 27.6432C28.4058 27.6432 27.4962 26.548 27.4962 25.2031C27.4962 23.8582 28.4058 22.7657 29.5243 22.7657C30.6428 22.7657 31.5524 23.8581 31.5524 25.2031C31.5524 26.5481 30.6428 27.6432 29.5243 27.6432ZM49.7465 27.6432C48.6295 27.6432 47.7199 26.548 47.7199 25.2031C47.7199 23.8582 48.6295 22.7657 49.7465 22.7657C50.8636 22.7657 51.7709 23.8581 51.7709 25.2031C51.7709 26.5481 50.8636 27.6432 49.7465 27.6432ZM56.5833 23.8003H53.5341C53.0325 21.8435 51.5345 20.4086 49.7461 20.4086C47.9581 20.4086 46.4582 21.8434 45.9561 23.8003H33.314C32.9406 22.3447 32.0165 21.1928 30.8253 20.6932H45.6968C46.2363 20.6932 46.6755 20.1645 46.6755 19.515V9.61063H52.8059L53.1732 10.3679H51.1298C49.9264 10.3679 48.9479 11.545 48.9479 12.9922V16.0677C48.9479 17.7175 50.1078 19.0585 51.5214 19.0585L56.8615 19.1337V23.4617C56.8625 23.648 56.7385 23.8002 56.5832 23.8002L56.5833 23.8003Z" fill="#FF0100"/>
<path d="M3.79446 9.2488C4.33388 9.2488 4.77214 8.72114 4.77214 8.07167C4.77214 7.4222 4.33388 6.89453 3.79446 6.89453H1.14443C0.605006 6.89453 0.166748 7.4222 0.166748 8.07167C0.166748 8.72114 0.605006 9.2488 1.14443 9.2488H3.79446Z" fill="#FF0100"/>
<path d="M17.9582 6.89502H7.53798C6.99856 6.89502 6.5603 7.42268 6.5603 8.07215C6.5603 8.72162 6.99856 9.24929 7.53798 9.24929H17.9582C18.4977 9.24929 18.9359 8.72162 18.9359 8.07215C18.9354 7.42268 18.4977 6.89502 17.9582 6.89502Z" fill="#FF0100"/>
<path d="M3.46868 14.2553C3.46868 13.6058 3.03042 13.0781 2.491 13.0781H1.62661C1.08718 13.0781 0.648926 13.6058 0.648926 14.2553C0.648926 14.9047 1.08718 15.4324 1.62661 15.4324H2.491C3.03088 15.4318 3.46868 14.9047 3.46868 14.2553Z" fill="#FF0100"/>
<path d="M7.23427 15.2117H16.9971C17.5365 15.2117 17.9748 14.684 17.9748 14.0346C17.9748 13.3851 17.5365 12.8574 16.9971 12.8574H7.23427C6.69485 12.8574 6.25659 13.3851 6.25659 14.0346C6.25706 14.684 6.69485 15.2117 7.23427 15.2117Z" fill="#FF0100"/>
<path d="M6.54905 18.8223H2.96328C2.42385 18.8223 1.9856 19.3511 1.9856 20.0005C1.9856 20.65 2.42385 21.1788 2.96328 21.1788H6.54905C7.08847 21.1788 7.52673 20.65 7.52673 20.0005C7.52673 19.3511 7.08847 18.8223 6.54905 18.8223Z" fill="#FF0100"/>
<path d="M17.9583 18.8223H9.59926C9.05984 18.8223 8.62158 19.3511 8.62158 20.0005C8.62158 20.65 9.05984 21.1788 9.59926 21.1788H17.9583C18.4977 21.1788 18.9359 20.65 18.9359 20.0005C18.9355 19.3511 18.4977 18.8223 17.9583 18.8223Z" fill="#FF0100"/>
<path d="M18.8941 1.15527H17.9584C17.419 1.15527 16.9807 1.68294 16.9807 2.33241C16.9807 2.98188 17.419 3.50955 17.9584 3.50955H18.8941C19.4335 3.50955 19.8718 2.98188 19.8718 2.33241C19.8713 1.68238 19.4335 1.15527 18.8941 1.15527Z" fill="#FF0100"/>
<path d="M0.977681 3.50955H15.0639C15.6033 3.50955 16.0416 2.98188 16.0416 2.33241C16.0416 1.68294 15.6033 1.15527 15.0639 1.15527L0.977681 1.15583C0.438258 1.15583 0 1.6835 0 2.33297C0 2.98244 0.438258 3.50955 0.977681 3.50955V3.50955Z" fill="#FF0100"/>
</svg>
