<svg width="40" height="56" viewBox="0 0 40 56" fill="none" xmlns="http://www.w3.org/2000/svg">
<path d="M20.0048 40.0183C19.7517 40.0196 19.5079 39.9205 19.3284 39.7418L14.0297 34.4431H6.52893C6.00264 34.4431 5.5759 34.0164 5.5759 33.4901V25.9804L0.27729 20.6818V20.6813C-0.09243 20.3099 -0.09243 19.7096 0.27729 19.3377L5.5759 14.0391V6.52893C5.5759 6.00264 6.00264 5.5759 6.52893 5.5759H14.0293L19.3279 0.27729H19.3283C19.6998 -0.09243 20.3001 -0.09243 20.672 0.27729L25.9706 5.5759H33.4709C33.7237 5.5759 33.9662 5.67631 34.1449 5.855C34.3236 6.03412 34.424 6.27621 34.424 6.52893V14.0387L39.723 19.3377C40.0923 19.7096 40.0923 20.3099 39.723 20.6813L34.4244 25.9799V33.4897L34.424 33.4901C34.424 33.7428 34.3236 33.9854 34.1449 34.164C33.9662 34.3427 33.7237 34.4431 33.471 34.4431H25.9804L20.6818 39.7418H20.6813C20.5018 39.9205 20.258 40.0196 20.0049 40.0183H20.0048ZM7.48151 32.5277H14.4292C14.6824 32.526 14.9262 32.6256 15.1057 32.8039L20.0045 37.7217L24.9125 32.8137C25.0925 32.635 25.3359 32.5358 25.589 32.5371H32.5367V25.5894C32.5355 25.3362 32.6346 25.0929 32.8133 24.9129L37.7213 20.0049L32.8133 15.0968C32.6346 14.9169 32.5355 14.6735 32.5367 14.4204V7.48199H25.589C25.3359 7.48369 25.0925 7.38414 24.9125 7.20586L20.0045 2.28803L15.0965 7.19606C14.9165 7.37475 14.6731 7.47389 14.42 7.47261H7.48162V14.4203C7.48332 14.6735 7.38376 14.9169 7.20549 15.0968L2.28766 20.0049L7.19569 24.9129C7.37438 25.0929 7.47352 25.3362 7.47224 25.5894L7.48151 32.5277Z" fill="#FF730D"/>
<path d="M27.3526 37.4643L26.5043 36.6159L25.1513 37.9599L25.3326 38.1412L11.4282 52.0173V47.5759C11.4282 47.3232 11.3278 47.0807 11.1491 46.902C10.9704 46.7233 10.7279 46.6229 10.4751 46.6229H6.06267L14.7922 37.8934L13.4486 36.5498L3.08912 46.8995C2.80534 47.1645 2.71131 47.5755 2.85086 47.938C2.99723 48.2941 3.34312 48.5273 3.72774 48.529H9.52203V54.3139C9.52416 54.6985 9.75688 55.0444 10.113 55.1908C10.2262 55.244 10.35 55.2703 10.4751 55.2669C10.7282 55.2682 10.972 55.1691 11.1515 54.9904L27.353 38.7889C27.5334 38.6102 27.6351 38.3664 27.6351 38.1124C27.6351 37.8584 27.5334 37.6147 27.353 37.436L27.3526 37.4643Z" fill="#FF730D"/>
<path d="M36.8827 46.8996L29.2584 39.2754C29.1189 39.5966 28.9181 39.8881 28.6679 40.1331L28.0484 40.7619L33.8811 46.5946H29.4682C28.9419 46.5946 28.5151 47.0213 28.5151 47.5476V51.9885L22.6825 46.1559L21.3291 47.4995L28.7917 54.9621C28.9716 55.1403 29.215 55.2399 29.4682 55.2386C29.5932 55.2416 29.7175 55.2156 29.8302 55.1624C30.1863 55.0161 30.4195 54.6702 30.4212 54.2856V48.5291H36.2061C36.5907 48.5274 36.9366 48.2942 37.083 47.9381C37.2323 47.5833 37.1532 47.1736 36.8826 46.8996L36.8827 46.8996Z" fill="#FF730D"/>
<path d="M20.0049 26.6759C19.7216 26.6764 19.4527 26.5509 19.271 26.333L14.5059 20.6149C14.3442 20.42 14.2663 20.169 14.2897 19.9171C14.3127 19.6652 14.4352 19.4325 14.6297 19.2708C15.0351 18.9339 15.6367 18.9896 15.9737 19.3946L19.9003 24.1121L25.866 14.7341V14.7345C26.1477 14.2895 26.7365 14.1576 27.1811 14.4388C27.6261 14.7205 27.758 15.3093 27.4768 15.7543L20.8056 26.2376C20.6418 26.4937 20.3657 26.6567 20.0619 26.6758L20.0049 26.6759Z" fill="#FF730D"/>
</svg>
