<svg width="25" height="22" viewBox="0 0 25 22" fill="none" xmlns="http://www.w3.org/2000/svg">
<path d="M12.5019 21C12.2232 21 11.9578 20.8953 11.7557 20.705C11.741 20.6914 10.0017 19.0442 2.97613 12.1646L2.92714 12.1167C2.8549 12.0466 2.81947 12.0063 2.78404 11.9657C1.63677 10.7511 1 9.17162 1 7.52796C1 3.92855 3.99066 1 7.66641 1C9.47047 1 11.184 1.71113 12.4282 2.96344C13.6728 1.71108 15.3867 1 17.1907 1C20.8665 1 23.8571 3.92855 23.8571 7.52796C23.8571 9.33166 23.1191 11.0097 21.7784 12.256C21.7587 12.2785 21.7408 12.2963 21.7276 12.3089C14.6454 19.2439 13.3022 20.6504 13.2893 20.6637C13.0921 20.87 12.8156 20.9923 12.5294 20.9993L12.5019 21ZM7.66677 1.70098C4.38527 1.70098 1.71584 4.31497 1.71584 7.52831C1.71584 8.99502 2.28534 10.4057 3.31924 11.5008C3.35431 11.5403 3.37931 11.5691 3.43231 11.6206L3.48237 11.6696C10.5057 18.5472 12.2361 20.1855 12.2515 20.2002C12.3191 20.264 12.4071 20.299 12.4994 20.2997L12.5144 20.2994C12.6078 20.2969 12.7008 20.2559 12.7667 20.1869C12.777 20.1757 14.1314 18.758 21.2206 11.8161L21.2721 11.7618C22.478 10.6481 23.1424 9.14467 23.1424 7.52866C23.1424 4.31532 20.4729 1.70133 17.1915 1.70133C15.4611 1.70133 13.8241 2.43383 12.7001 3.71139L12.4289 4.01931L12.1578 3.71103C11.0341 2.43348 9.39744 1.70098 7.66677 1.70098Z" fill="white" stroke="#FF730D"/>
</svg>
