<svg width="31" height="18" viewBox="0 0 31 18" fill="none" xmlns="http://www.w3.org/2000/svg">
<path d="M30.6005 8.9976C30.5879 8.67585 30.4554 8.30388 30.2348 8.06938L23.0345 0.419066C22.5467 -0.0194469 21.611 -0.200253 21.0658 0.306693C20.5287 0.806102 20.5447 1.77419 21.0796 2.27546L26.1421 7.64755H1.35009C0.604589 7.64755 0 8.25212 0 8.99765C0 9.74318 0.604565 10.3477 1.35009 10.3477H26.1421L21.0796 15.7198C20.6188 16.1813 20.5337 17.1839 21.0658 17.6886C21.5975 18.1937 22.5665 18.0323 23.0345 17.5759L30.2348 9.9256C30.4812 9.66381 30.6011 9.3565 30.6005 8.99738V8.9976Z" fill="white"/>
</svg>
