<svg width="34" height="36" viewBox="0 0 34 36" fill="none" xmlns="http://www.w3.org/2000/svg">
<rect y="6" width="30" height="30" rx="6" fill="#FF730D"/>
<path d="M12.6851 26.8042C12.3168 26.8042 11.9635 26.9521 11.7031 27.2154C11.4425 27.4786 11.2962 27.8356 11.2962 28.2077C11.2962 28.5801 11.4425 28.9371 11.7031 29.2002C11.9635 29.4634 12.3168 29.6113 12.6851 29.6113C13.0535 29.6113 13.4068 29.4634 13.6672 29.2002C13.9276 28.9371 14.074 28.5801 14.074 28.2077C14.074 27.8356 13.9276 27.4786 13.6672 27.2154C13.4068 26.9521 13.0535 26.8042 12.6851 26.8042V26.8042ZM22.4073 23.9972H11.2962C10.9654 23.9972 10.6597 23.8189 10.4943 23.5294C10.3289 23.24 10.3289 22.8831 10.4943 22.5936C10.6597 22.3042 10.9654 22.1259 11.2962 22.1259H19.1585C19.7616 22.1239 20.348 21.9245 20.8295 21.5574C21.3111 21.1904 21.662 20.6756 21.8296 20.09L23.2975 14.8978C23.3773 14.6155 23.3215 14.3116 23.1465 14.0773C22.9715 13.8428 22.6979 13.7049 22.4073 13.7049H11.0545C10.8628 13.1596 10.5095 12.6875 10.0426 12.3526C9.57574 12.0177 9.01804 11.8365 8.44558 11.8335H7.59241C7.26162 11.8335 6.95595 12.0119 6.79055 12.3014C6.62515 12.5909 6.62515 12.9475 6.79055 13.237C6.95595 13.5265 7.26162 13.7049 7.59241 13.7049H8.44558C8.64648 13.7055 8.84194 13.7721 9.00237 13.8943C9.1628 14.0166 9.27984 14.1882 9.33579 14.3833L9.4798 14.893L9.47995 14.8977L10.999 20.2704C10.0474 20.3738 9.21567 20.965 8.79745 21.835C8.3794 22.705 8.4338 23.7312 8.94161 24.5509C9.44942 25.3707 10.339 25.8686 11.296 25.8686H22.4071C22.7379 25.8686 23.0436 25.6902 23.209 25.4007C23.3744 25.1112 23.3744 24.7545 23.209 24.4651C23.0436 24.1756 22.7379 23.9972 22.4071 23.9972L22.4073 23.9972ZM21.1799 15.576L20.0491 19.5754V19.5756C19.9933 19.7708 19.8763 19.9426 19.7157 20.0649C19.5551 20.1873 19.3596 20.2538 19.1584 20.2545H12.9207L12.6847 19.4197L11.5985 15.576L21.1799 15.576ZM20.0925 26.8042C19.7242 26.8042 19.3709 26.9521 19.1104 27.2154C18.85 27.4786 18.7036 27.8356 18.7036 28.2077C18.7036 28.5801 18.85 28.9371 19.1104 29.2002C19.3709 29.4634 19.7242 29.6113 20.0925 29.6113C20.4608 29.6113 20.8141 29.4634 21.0747 29.2002C21.3351 28.9371 21.4814 28.5801 21.4814 28.2077C21.4814 27.8356 21.3351 27.4786 21.0747 27.2154C20.8141 26.9521 20.4608 26.8042 20.0925 26.8042V26.8042Z" fill="white"/>
<circle cx="28" cy="7" r="5.8" fill="white" stroke="#F1F1F1" stroke-width="0.4"/>
<path d="M26.098 5.41H27.556V10H28.708V3.7H27.862C27.763 4.348 27.115 4.825 26.224 4.825H26.098V5.41Z" fill="#331C18"/>
</svg>
