<svg width="12" height="12" viewBox="0 0 12 12" fill="none" xmlns="http://www.w3.org/2000/svg">
<path d="M11.612 4.22551L8.01471 3.67803L6.40661 0.264099C6.36269 0.170628 6.29043 0.0949605 6.20117 0.0489667C5.97731 -0.0667598 5.70528 0.029679 5.59335 0.264099L3.98524 3.67803L0.387906 4.22551C0.288728 4.24034 0.198051 4.2893 0.128626 4.36349C0.0446955 4.45382 -0.00155413 4.57536 3.9878e-05 4.70138C0.00163389 4.82741 0.0509411 4.94761 0.137127 5.03559L2.73985 7.69285L2.12494 11.4451C2.11052 11.5323 2.11975 11.6221 2.15157 11.7042C2.18339 11.7863 2.23653 11.8574 2.30498 11.9094C2.37342 11.9615 2.45442 11.9924 2.5388 11.9987C2.62317 12.005 2.70755 11.9864 2.78235 11.9451L5.99998 10.1735L9.2176 11.9451C9.30545 11.994 9.40746 12.0103 9.50522 11.9925C9.75175 11.948 9.91752 11.7032 9.87501 11.4451L9.26011 7.69285L11.8628 5.03559C11.9337 4.96289 11.9804 4.86794 11.9946 4.76408C12.0328 4.50444 11.86 4.26408 11.612 4.22551V4.22551Z" fill="#FF730D"/>
</svg>
