<svg width="92" height="12" viewBox="0 0 92 12" fill="none" xmlns="http://www.w3.org/2000/svg">
<path d="M11.612 4.22551L8.01471 3.67803L6.40661 0.264099C6.36269 0.170628 6.29043 0.0949605 6.20117 0.0489667C5.97731 -0.0667598 5.70528 0.029679 5.59335 0.264099L3.98524 3.67803L0.387906 4.22551C0.288728 4.24034 0.198051 4.2893 0.128626 4.36349C0.0446955 4.45382 -0.00155413 4.57536 3.9878e-05 4.70138C0.00163389 4.82741 0.0509411 4.94761 0.137127 5.03559L2.73985 7.69285L2.12494 11.4451C2.11052 11.5323 2.11975 11.6221 2.15157 11.7042C2.18339 11.7863 2.23653 11.8574 2.30498 11.9094C2.37342 11.9615 2.45442 11.9924 2.5388 11.9987C2.62317 12.005 2.70755 11.9864 2.78235 11.9451L5.99998 10.1735L9.2176 11.9451C9.30545 11.994 9.40746 12.0103 9.50522 11.9925C9.75175 11.948 9.91752 11.7032 9.87501 11.4451L9.26011 7.69285L11.8628 5.03559C11.9337 4.96289 11.9804 4.86794 11.9946 4.76408C12.0328 4.50444 11.86 4.26408 11.612 4.22551V4.22551Z" fill="#FF730D"/>
<path d="M31.612 4.22551L28.0147 3.67803L26.4066 0.264099C26.3627 0.170628 26.2904 0.0949605 26.2012 0.0489667C25.9773 -0.0667598 25.7053 0.029679 25.5933 0.264099L23.9852 3.67803L20.3879 4.22551C20.2887 4.24034 20.1981 4.2893 20.1286 4.36349C20.0447 4.45382 19.9984 4.57536 20 4.70138C20.0016 4.82741 20.0509 4.94761 20.1371 5.03559L22.7398 7.69285L22.1249 11.4451C22.1105 11.5323 22.1197 11.6221 22.1516 11.7042C22.1834 11.7863 22.2365 11.8574 22.305 11.9094C22.3734 11.9615 22.4544 11.9924 22.5388 11.9987C22.6232 12.005 22.7075 11.9864 22.7824 11.9451L26 10.1735L29.2176 11.9451C29.3054 11.994 29.4075 12.0103 29.5052 11.9925C29.7517 11.948 29.9175 11.7032 29.875 11.4451L29.2601 7.69285L31.8628 5.03559C31.9337 4.96289 31.9804 4.86794 31.9946 4.76408C32.0328 4.50444 31.86 4.26408 31.612 4.22551V4.22551Z" fill="#FF730D"/>
<path d="M51.6118 4.22551L48.0145 3.67803L46.4064 0.264099C46.3624 0.170628 46.2902 0.0949605 46.2009 0.0489667C45.9771 -0.0667598 45.705 0.029679 45.5931 0.264099L43.985 3.67803L40.3877 4.22551C40.2885 4.24034 40.1978 4.2893 40.1284 4.36349C40.0445 4.45382 39.9982 4.57536 39.9998 4.70138C40.0014 4.82741 40.0507 4.94761 40.1369 5.03559L42.7396 7.69285L42.1247 11.4451C42.1103 11.5323 42.1195 11.6221 42.1513 11.7042C42.1831 11.7863 42.2363 11.8574 42.3047 11.9094C42.3732 11.9615 42.4542 11.9924 42.5386 11.9987C42.6229 12.005 42.7073 11.9864 42.7821 11.9451L45.9997 10.1735L49.2174 11.9451C49.3052 11.994 49.4072 12.0103 49.505 11.9925C49.7515 11.948 49.9173 11.7032 49.8748 11.4451L49.2599 7.69285L51.8626 5.03559C51.9334 4.96289 51.9802 4.86794 51.9943 4.76408C52.0326 4.50444 51.8597 4.26408 51.6118 4.22551V4.22551Z" fill="#FF730D"/>
<path d="M71.6118 4.22551L68.0145 3.67803L66.4064 0.264099C66.3624 0.170628 66.2902 0.0949605 66.2009 0.0489667C65.9771 -0.0667598 65.705 0.029679 65.5931 0.264099L63.985 3.67803L60.3877 4.22551C60.2885 4.24034 60.1978 4.2893 60.1284 4.36349C60.0445 4.45382 59.9982 4.57536 59.9998 4.70138C60.0014 4.82741 60.0507 4.94761 60.1369 5.03559L62.7396 7.69285L62.1247 11.4451C62.1103 11.5323 62.1195 11.6221 62.1513 11.7042C62.1831 11.7863 62.2363 11.8574 62.3047 11.9094C62.3732 11.9615 62.4542 11.9924 62.5386 11.9987C62.6229 12.005 62.7073 11.9864 62.7821 11.9451L65.9997 10.1735L69.2174 11.9451C69.3052 11.994 69.4072 12.0103 69.505 11.9925C69.7515 11.948 69.9173 11.7032 69.8748 11.4451L69.2599 7.69285L71.8626 5.03559C71.9334 4.96289 71.9802 4.86794 71.9943 4.76408C72.0326 4.50444 71.8597 4.26408 71.6118 4.22551V4.22551Z" fill="#FF730D"/>
<path d="M91.6116 4.22551L88.0142 3.67803L86.4061 0.264099C86.3622 0.170628 86.2899 0.0949605 86.2007 0.0489667C85.9768 -0.0667598 85.7048 0.029679 85.5929 0.264099L83.9848 3.67803L80.3874 4.22551C80.2882 4.24034 80.1976 4.2893 80.1281 4.36349C80.0442 4.45382 79.998 4.57536 79.9996 4.70138C80.0011 4.82741 80.0505 4.94761 80.1366 5.03559L82.7394 7.69285L82.1245 11.4451C82.11 11.5323 82.1193 11.6221 82.1511 11.7042C82.1829 11.7863 82.236 11.8574 82.3045 11.9094C82.3729 11.9615 82.4539 11.9924 82.5383 11.9987C82.6227 12.005 82.7071 11.9864 82.7819 11.9451L85.9995 10.1735L89.2171 11.9451C89.305 11.994 89.407 12.0103 89.5047 11.9925C89.7513 11.948 89.917 11.7032 89.8745 11.4451L89.2596 7.69285L91.8623 5.03559C91.9332 4.96289 91.9799 4.86794 91.9941 4.76408C92.0324 4.50444 91.8595 4.26408 91.6116 4.22551V4.22551Z" fill="#FF730D"/>
</svg>
